{
	"asset":{
		"generator":"Khronos glTF Blender I/O v5.1.18",
		"version":"2.0"
	},
	"extensionsUsed":[
		"KHR_materials_specular"
	],
	"scene":0,
	"scenes":[
		{
			"name":"Scene",
			"nodes":[
				0,
				13
			]
		}
	],
	"nodes":[
		{
			"mesh":0,
			"name":"Cube.010",
			"scale":[
				2.275970935821533,
				0.19716346263885498,
				0.1828315705060959
			],
			"translation":[
				0.0761306881904602,
				8.525449752807617,
				0
			]
		},
		{
			"mesh":1,
			"name":"Cube.015",
			"scale":[
				0.8605768084526062,
				0.9915401935577393,
				0.42338886857032776
			]
		},
		{
			"mesh":2,
			"name":"Cube.016",
			"scale":[
				0.20765778422355652,
				0.29283690452575684,
				0.5106820464134216
			],
			"translation":[
				-14.646522521972656,
				17.244611740112305,
				2.006069053095416e-06
			]
		},
		{
			"mesh":3,
			"name":"Cube.031",
			"scale":[
				0.7253788113594055,
				0.384614497423172,
				0.2286311686038971
			],
			"translation":[
				-0.42141008377075195,
				27.96875,
				0.4213729202747345
			]
		},
		{
			"mesh":4,
			"name":"Cube.079",
			"scale":[
				0.7253788113594055,
				0.384614497423172,
				0.2286311686038971
			],
			"translation":[
				-0.42141008377075195,
				16.912607192993164,
				0.4213729202747345
			]
		},
		{
			"mesh":5,
			"name":"Cube.080",
			"scale":[
				0.7253788113594055,
				0.384614497423172,
				0.2286311686038971
			],
			"translation":[
				-0.42141008377075195,
				4.4972825050354,
				0.4213729202747345
			]
		},
		{
			"mesh":6,
			"name":"Cylinder",
			"scale":[
				0.21425750851631165,
				1.804587721824646,
				0.24226896464824677
			],
			"translation":[
				-13.476863861083984,
				17.271869659423828,
				1.2564500570297241
			]
		},
		{
			"mesh":7,
			"name":"Cylinder.001",
			"rotation":[
				0.6759845018386841,
				0.20747248828411102,
				0.2074725180864334,
				0.6759846806526184
			],
			"scale":[
				0.027102241292595863,
				0.513235867023468,
				0.027405060827732086
			],
			"translation":[
				-14.650060653686523,
				17.275888442993164,
				-0.0006709586596116424
			]
		},
		{
			"mesh":8,
			"name":"Cylinder.017",
			"rotation":[
				-1,
				0,
				0,
				4.3711402497592644e-08
			],
			"scale":[
				0.21425750851631165,
				1.804587721824646,
				0.24226896464824677
			],
			"translation":[
				-13.494912147521973,
				17.271869659423828,
				-1.2564499378204346
			]
		},
		{
			"mesh":9,
			"name":"Cylinder.018",
			"scale":[
				0.2576454281806946,
				1.009578824043274,
				0.35376763343811035
			],
			"translation":[
				0.013602733612060547,
				26.543630599975586,
				0.2642360031604767
			]
		},
		{
			"mesh":10,
			"name":"Cylinder.019",
			"scale":[
				0.2576454281806946,
				1.009578824043274,
				0.35376763343811035
			],
			"translation":[
				0.013602733612060547,
				15.487485885620117,
				0.2642360031604767
			]
		},
		{
			"mesh":11,
			"name":"Cylinder.020",
			"scale":[
				0.2576454281806946,
				1.009578824043274,
				0.35376763343811035
			],
			"translation":[
				0.013602733612060547,
				3.0721611976623535,
				0.2642360031604767
			]
		},
		{
			"mesh":12,
			"name":"Plane",
			"rotation":[
				-0.70710688829422,
				0,
				0,
				0.7071066498756409
			],
			"scale":[
				3.7395834922790527,
				3.73958420753479,
				3.73958420753479
			],
			"translation":[
				-5.087715148925781,
				19.5950927734375,
				2.006069053095416e-06
			]
		},
		{
			"children":[
				1,
				2,
				3,
				4,
				5,
				6,
				7,
				8,
				9,
				10,
				11,
				12
			],
			"name":"Empty",
			"scale":[
				0.2539876401424408,
				0.2674095034599304,
				0.2674095034599304
			],
			"translation":[
				2.027035713195801,
				0.19716382026672363,
				0
			]
		}
	],
	"animations":[
		{
			"channels":[
				{
					"sampler":0,
					"target":{
						"node":13,
						"path":"rotation"
					}
				}
			],
			"name":"EmptyAction",
			"samplers":[
				{
					"input":48,
					"interpolation":"LINEAR",
					"output":49
				}
			]
		}
	],
	"materials":[
		{
			"doubleSided":true,
			"extensions":{
				"KHR_materials_specular":{
					"specularFactor":0
				}
			},
			"name":"white_door",
			"pbrMetallicRoughness":{
				"baseColorTexture":{
					"index":0
				},
				"metallicFactor":0
			}
		},
		{
			"alphaMode":"BLEND",
			"doubleSided":true,
			"extensions":{
				"KHR_materials_specular":{
					"specularColorFactor":[
						1.600000023841858,
						1.600000023841858,
						1.600000023841858
					]
				}
			},
			"name":"Glass",
			"normalTexture":{
				"index":1,
				"texCoord":1
			},
			"pbrMetallicRoughness":{
				"baseColorTexture":{
					"index":2,
					"texCoord":1
				},
				"metallicFactor":0,
				"metallicRoughnessTexture":{
					"index":3,
					"texCoord":1
				}
			}
		}
	],
	"meshes":[
		{
			"name":"Cube.037",
			"primitives":[
				{
					"attributes":{
						"POSITION":0,
						"NORMAL":1,
						"TEXCOORD_0":2
					},
					"indices":3,
					"material":0
				}
			]
		},
		{
			"name":"Cube.062",
			"primitives":[
				{
					"attributes":{
						"POSITION":4,
						"NORMAL":5,
						"TEXCOORD_0":6
					},
					"indices":7,
					"material":0
				}
			]
		},
		{
			"name":"Cube.067",
			"primitives":[
				{
					"attributes":{
						"POSITION":8,
						"NORMAL":9,
						"TEXCOORD_0":10
					},
					"indices":11,
					"material":0
				}
			]
		},
		{
			"name":"Cube.003",
			"primitives":[
				{
					"attributes":{
						"POSITION":12,
						"NORMAL":13,
						"TEXCOORD_0":14
					},
					"indices":15,
					"material":0
				}
			]
		},
		{
			"name":"Cube.004",
			"primitives":[
				{
					"attributes":{
						"POSITION":16,
						"NORMAL":17,
						"TEXCOORD_0":18
					},
					"indices":15,
					"material":0
				}
			]
		},
		{
			"name":"Cube.006",
			"primitives":[
				{
					"attributes":{
						"POSITION":19,
						"NORMAL":20,
						"TEXCOORD_0":21
					},
					"indices":15,
					"material":0
				}
			]
		},
		{
			"name":"Cylinder.030",
			"primitives":[
				{
					"attributes":{
						"POSITION":22,
						"NORMAL":23,
						"TEXCOORD_0":24
					},
					"indices":25,
					"material":0
				}
			]
		},
		{
			"name":"Cylinder.032",
			"primitives":[
				{
					"attributes":{
						"POSITION":26,
						"NORMAL":27,
						"TEXCOORD_0":28
					},
					"indices":29,
					"material":0
				}
			]
		},
		{
			"name":"Cylinder.033",
			"primitives":[
				{
					"attributes":{
						"POSITION":30,
						"NORMAL":31,
						"TEXCOORD_0":32
					},
					"indices":25,
					"material":0
				}
			]
		},
		{
			"name":"Cylinder",
			"primitives":[
				{
					"attributes":{
						"POSITION":33,
						"NORMAL":34,
						"TEXCOORD_0":35
					},
					"indices":36,
					"material":0
				}
			]
		},
		{
			"name":"Cylinder.001",
			"primitives":[
				{
					"attributes":{
						"POSITION":37,
						"NORMAL":38,
						"TEXCOORD_0":39
					},
					"indices":36,
					"material":0
				}
			]
		},
		{
			"name":"Cylinder.003",
			"primitives":[
				{
					"attributes":{
						"POSITION":40,
						"NORMAL":41,
						"TEXCOORD_0":42
					},
					"indices":36,
					"material":0
				}
			]
		},
		{
			"name":"Plane",
			"primitives":[
				{
					"attributes":{
						"POSITION":43,
						"NORMAL":44,
						"TEXCOORD_0":45,
						"TEXCOORD_1":46
					},
					"indices":47,
					"material":1
				}
			]
		}
	],
	"textures":[
		{
			"sampler":0,
			"source":0
		},
		{
			"sampler":1,
			"source":1
		},
		{
			"sampler":1,
			"source":2
		},
		{
			"sampler":1,
			"source":3
		}
	],
	"images":[
		{
			"mimeType":"image/png",
			"name":"white_door",
			"uri":"textures/white_door.png"
		},
		{
			"mimeType":"image/jpeg",
			"name":"glass_01_normal",
			"uri":"textures/glass_01_normal.jpg"
		},
		{
			"mimeType":"image/png",
			"name":"glass_01_color-glass_01_roughness",
			"uri":"textures/glass_01_color-glass_01_roughness.png"
		},
		{
			"mimeType":"image/png",
			"name":"glass_01_roughness",
			"uri":"textures/glass_01_roughness.png"
		}
	],
	"accessors":[
		{
			"bufferView":0,
			"componentType":5126,
			"count":104,
			"max":[
				1,
				1,
				1
			],
			"min":[
				-1.0000001192092896,
				-44.240516662597656,
				-1
			],
			"type":"VEC3"
		},
		{
			"bufferView":1,
			"componentType":5126,
			"count":104,
			"type":"VEC3"
		},
		{
			"bufferView":2,
			"componentType":5126,
			"count":104,
			"type":"VEC2"
		},
		{
			"bufferView":3,
			"componentType":5123,
			"count":168,
			"type":"SCALAR"
		},
		{
			"bufferView":4,
			"componentType":5126,
			"count":148,
			"max":[
				9.5367431640625e-07,
				30.66644287109375,
				1
			],
			"min":[
				-17.851058959960938,
				-9.5367431640625e-07,
				-1
			],
			"type":"VEC3"
		},
		{
			"bufferView":5,
			"componentType":5126,
			"count":148,
			"type":"VEC3"
		},
		{
			"bufferView":6,
			"componentType":5126,
			"count":148,
			"type":"VEC2"
		},
		{
			"bufferView":7,
			"componentType":5123,
			"count":360,
			"type":"SCALAR"
		},
		{
			"bufferView":8,
			"componentType":5126,
			"count":50,
			"max":[
				1.1208442449569702,
				1.1972203254699707,
				1
			],
			"min":[
				-1.1208442449569702,
				-1.338796615600586,
				-1
			],
			"type":"VEC3"
		},
		{
			"bufferView":9,
			"componentType":5126,
			"count":50,
			"type":"VEC3"
		},
		{
			"bufferView":10,
			"componentType":5126,
			"count":50,
			"type":"VEC2"
		},
		{
			"bufferView":11,
			"componentType":5123,
			"count":96,
			"type":"SCALAR"
		},
		{
			"bufferView":12,
			"componentType":5126,
			"count":24,
			"max":[
				1,
				1,
				1
			],
			"min":[
				-1.000000238418579,
				-1,
				-1
			],
			"type":"VEC3"
		},
		{
			"bufferView":13,
			"componentType":5126,
			"count":24,
			"type":"VEC3"
		},
		{
			"bufferView":14,
			"componentType":5126,
			"count":24,
			"type":"VEC2"
		},
		{
			"bufferView":15,
			"componentType":5123,
			"count":36,
			"type":"SCALAR"
		},
		{
			"bufferView":16,
			"componentType":5126,
			"count":24,
			"max":[
				1,
				1,
				1
			],
			"min":[
				-1.000000238418579,
				-1,
				-1
			],
			"type":"VEC3"
		},
		{
			"bufferView":17,
			"componentType":5126,
			"count":24,
			"type":"VEC3"
		},
		{
			"bufferView":18,
			"componentType":5126,
			"count":24,
			"type":"VEC2"
		},
		{
			"bufferView":19,
			"componentType":5126,
			"count":24,
			"max":[
				1,
				1,
				1
			],
			"min":[
				-1.000000238418579,
				-1,
				-1
			],
			"type":"VEC3"
		},
		{
			"bufferView":20,
			"componentType":5126,
			"count":24,
			"type":"VEC3"
		},
		{
			"bufferView":21,
			"componentType":5126,
			"count":24,
			"type":"VEC2"
		},
		{
			"bufferView":22,
			"componentType":5126,
			"count":1486,
			"max":[
				1,
				1.4410594701766968,
				1
			],
			"min":[
				-6.821015357971191,
				-1.4410594701766968,
				-3.438579559326172
			],
			"type":"VEC3"
		},
		{
			"bufferView":23,
			"componentType":5126,
			"count":1486,
			"type":"VEC3"
		},
		{
			"bufferView":24,
			"componentType":5126,
			"count":1486,
			"type":"VEC2"
		},
		{
			"bufferView":25,
			"componentType":5123,
			"count":2196,
			"type":"SCALAR"
		},
		{
			"bufferView":26,
			"componentType":5126,
			"count":120,
			"max":[
				0.9978784322738647,
				0.9999999403953552,
				3.4091813564300537
			],
			"min":[
				-2.7754297256469727,
				-0.9999999403953552,
				-1.001428484916687
			],
			"type":"VEC3"
		},
		{
			"bufferView":27,
			"componentType":5126,
			"count":120,
			"type":"VEC3"
		},
		{
			"bufferView":28,
			"componentType":5126,
			"count":120,
			"type":"VEC2"
		},
		{
			"bufferView":29,
			"componentType":5123,
			"count":216,
			"type":"SCALAR"
		},
		{
			"bufferView":30,
			"componentType":5126,
			"count":1486,
			"max":[
				1,
				1.4410594701766968,
				1
			],
			"min":[
				-6.821015357971191,
				-1.4410594701766968,
				-3.438579559326172
			],
			"type":"VEC3"
		},
		{
			"bufferView":31,
			"componentType":5126,
			"count":1486,
			"type":"VEC3"
		},
		{
			"bufferView":32,
			"componentType":5126,
			"count":1486,
			"type":"VEC2"
		},
		{
			"bufferView":33,
			"componentType":5126,
			"count":84,
			"max":[
				0.9749279022216797,
				1.1110988855361938,
				1
			],
			"min":[
				-0.9749279022216797,
				-0.3158126473426819,
				-1
			],
			"type":"VEC3"
		},
		{
			"bufferView":34,
			"componentType":5126,
			"count":84,
			"type":"VEC3"
		},
		{
			"bufferView":35,
			"componentType":5126,
			"count":84,
			"type":"VEC2"
		},
		{
			"bufferView":36,
			"componentType":5123,
			"count":156,
			"type":"SCALAR"
		},
		{
			"bufferView":37,
			"componentType":5126,
			"count":84,
			"max":[
				0.9749279022216797,
				1.1110988855361938,
				1
			],
			"min":[
				-0.9749279022216797,
				-0.3158126473426819,
				-1
			],
			"type":"VEC3"
		},
		{
			"bufferView":38,
			"componentType":5126,
			"count":84,
			"type":"VEC3"
		},
		{
			"bufferView":39,
			"componentType":5126,
			"count":84,
			"type":"VEC2"
		},
		{
			"bufferView":40,
			"componentType":5126,
			"count":84,
			"max":[
				0.9749279022216797,
				1.1110988855361938,
				1
			],
			"min":[
				-0.9749279022216797,
				-0.3158126473426819,
				-1
			],
			"type":"VEC3"
		},
		{
			"bufferView":41,
			"componentType":5126,
			"count":84,
			"type":"VEC3"
		},
		{
			"bufferView":42,
			"componentType":5126,
			"count":84,
			"type":"VEC2"
		},
		{
			"bufferView":43,
			"componentType":5126,
			"count":4,
			"max":[
				1.023876428604126,
				5.792111323899007e-07,
				2.5664968490600586
			],
			"min":[
				-2.41087007522583,
				4.0182283100875793e-07,
				-1.7830824851989746
			],
			"type":"VEC3"
		},
		{
			"bufferView":44,
			"componentType":5126,
			"count":4,
			"type":"VEC3"
		},
		{
			"bufferView":45,
			"componentType":5126,
			"count":4,
			"type":"VEC2"
		},
		{
			"bufferView":46,
			"componentType":5126,
			"count":4,
			"type":"VEC2"
		},
		{
			"bufferView":47,
			"componentType":5123,
			"count":6,
			"type":"SCALAR"
		},
		{
			"bufferView":48,
			"componentType":5126,
			"count":48,
			"max":[
				2
			],
			"min":[
				0.041666666666666664
			],
			"type":"SCALAR"
		},
		{
			"bufferView":49,
			"componentType":5126,
			"count":48,
			"type":"VEC4"
		}
	],
	"bufferViews":[
		{
			"buffer":0,
			"byteLength":1248,
			"byteOffset":0,
			"target":34962
		},
		{
			"buffer":0,
			"byteLength":1248,
			"byteOffset":1248,
			"target":34962
		},
		{
			"buffer":0,
			"byteLength":832,
			"byteOffset":2496,
			"target":34962
		},
		{
			"buffer":0,
			"byteLength":336,
			"byteOffset":3328,
			"target":34963
		},
		{
			"buffer":0,
			"byteLength":1776,
			"byteOffset":3664,
			"target":34962
		},
		{
			"buffer":0,
			"byteLength":1776,
			"byteOffset":5440,
			"target":34962
		},
		{
			"buffer":0,
			"byteLength":1184,
			"byteOffset":7216,
			"target":34962
		},
		{
			"buffer":0,
			"byteLength":720,
			"byteOffset":8400,
			"target":34963
		},
		{
			"buffer":0,
			"byteLength":600,
			"byteOffset":9120,
			"target":34962
		},
		{
			"buffer":0,
			"byteLength":600,
			"byteOffset":9720,
			"target":34962
		},
		{
			"buffer":0,
			"byteLength":400,
			"byteOffset":10320,
			"target":34962
		},
		{
			"buffer":0,
			"byteLength":192,
			"byteOffset":10720,
			"target":34963
		},
		{
			"buffer":0,
			"byteLength":288,
			"byteOffset":10912,
			"target":34962
		},
		{
			"buffer":0,
			"byteLength":288,
			"byteOffset":11200,
			"target":34962
		},
		{
			"buffer":0,
			"byteLength":192,
			"byteOffset":11488,
			"target":34962
		},
		{
			"buffer":0,
			"byteLength":72,
			"byteOffset":11680,
			"target":34963
		},
		{
			"buffer":0,
			"byteLength":288,
			"byteOffset":11752,
			"target":34962
		},
		{
			"buffer":0,
			"byteLength":288,
			"byteOffset":12040,
			"target":34962
		},
		{
			"buffer":0,
			"byteLength":192,
			"byteOffset":12328,
			"target":34962
		},
		{
			"buffer":0,
			"byteLength":288,
			"byteOffset":12520,
			"target":34962
		},
		{
			"buffer":0,
			"byteLength":288,
			"byteOffset":12808,
			"target":34962
		},
		{
			"buffer":0,
			"byteLength":192,
			"byteOffset":13096,
			"target":34962
		},
		{
			"buffer":0,
			"byteLength":17832,
			"byteOffset":13288,
			"target":34962
		},
		{
			"buffer":0,
			"byteLength":17832,
			"byteOffset":31120,
			"target":34962
		},
		{
			"buffer":0,
			"byteLength":11888,
			"byteOffset":48952,
			"target":34962
		},
		{
			"buffer":0,
			"byteLength":4392,
			"byteOffset":60840,
			"target":34963
		},
		{
			"buffer":0,
			"byteLength":1440,
			"byteOffset":65232,
			"target":34962
		},
		{
			"buffer":0,
			"byteLength":1440,
			"byteOffset":66672,
			"target":34962
		},
		{
			"buffer":0,
			"byteLength":960,
			"byteOffset":68112,
			"target":34962
		},
		{
			"buffer":0,
			"byteLength":432,
			"byteOffset":69072,
			"target":34963
		},
		{
			"buffer":0,
			"byteLength":17832,
			"byteOffset":69504,
			"target":34962
		},
		{
			"buffer":0,
			"byteLength":17832,
			"byteOffset":87336,
			"target":34962
		},
		{
			"buffer":0,
			"byteLength":11888,
			"byteOffset":105168,
			"target":34962
		},
		{
			"buffer":0,
			"byteLength":1008,
			"byteOffset":117056,
			"target":34962
		},
		{
			"buffer":0,
			"byteLength":1008,
			"byteOffset":118064,
			"target":34962
		},
		{
			"buffer":0,
			"byteLength":672,
			"byteOffset":119072,
			"target":34962
		},
		{
			"buffer":0,
			"byteLength":312,
			"byteOffset":119744,
			"target":34963
		},
		{
			"buffer":0,
			"byteLength":1008,
			"byteOffset":120056,
			"target":34962
		},
		{
			"buffer":0,
			"byteLength":1008,
			"byteOffset":121064,
			"target":34962
		},
		{
			"buffer":0,
			"byteLength":672,
			"byteOffset":122072,
			"target":34962
		},
		{
			"buffer":0,
			"byteLength":1008,
			"byteOffset":122744,
			"target":34962
		},
		{
			"buffer":0,
			"byteLength":1008,
			"byteOffset":123752,
			"target":34962
		},
		{
			"buffer":0,
			"byteLength":672,
			"byteOffset":124760,
			"target":34962
		},
		{
			"buffer":0,
			"byteLength":48,
			"byteOffset":125432,
			"target":34962
		},
		{
			"buffer":0,
			"byteLength":48,
			"byteOffset":125480,
			"target":34962
		},
		{
			"buffer":0,
			"byteLength":32,
			"byteOffset":125528,
			"target":34962
		},
		{
			"buffer":0,
			"byteLength":32,
			"byteOffset":125560,
			"target":34962
		},
		{
			"buffer":0,
			"byteLength":12,
			"byteOffset":125592,
			"target":34963
		},
		{
			"buffer":0,
			"byteLength":192,
			"byteOffset":125604
		},
		{
			"buffer":0,
			"byteLength":768,
			"byteOffset":125796
		}
	],
	"samplers":[
		{
			"magFilter":9728,
			"minFilter":9984
		},
		{
			"magFilter":9729,
			"minFilter":9987
		}
	],
	"buffers":[
		{
			"byteLength":126564,
			"uri":"white_door.bin"
		}
	]
}
